<svg xmlns="http://www.w3.org/2000/svg" viewBox="0 0 256 296">
  <path fill="#339933" d="M127.997 0C57.307 0 0 57.307 0 127.997c0 56.256 36.336 103.84 86.957 120.49l-3.25 5.954c-1.244 2.277-.39 5.14 1.887 6.383l29.56 16.14c2.276 1.244 5.14.39 6.383-1.887l3.25-5.954c40.74 7.06 73.68-27.89 73.68-69.98V79.13c0-3.313-2.687-6-6-6h-52.25c-3.313 0-6 2.687-6 6v49.876c0 8.25-6.715 14.966-14.966 14.966-8.25 0-14.966-6.716-14.966-14.966V79.13c0-3.313-2.687-6-6-6H58.25c-3.313 0-6 2.687-6 6v49.876c0 40.74 32.94 76.04 73.68 69.98l3.25-5.954c1.243-2.277 4.107-3.131 6.383-1.887l29.56 16.14c2.277 1.244 3.131 4.107 1.887 6.383l-3.25 5.954c50.62-16.65 86.956-64.234 86.956-120.49C255.993 57.307 198.686 0 127.997 0zm0 236.862c-52.935 0-95.865-42.93-95.865-95.865 0-52.935 42.93-95.865 95.865-95.865 52.935 0 95.865 42.93 95.865 95.865 0 52.935-42.93 95.865-95.865 95.865z"/>
</svg>
